PathFileType	4	(X/Y/Z)	./resultDataOpenSim/trcMotMarkerGrf/sub09/qtm-04-08.trc
DataRate	CameraRate	NumFrames	NumMarkers	Units	OrigDataRate	OrigDataStartFrame	OrigNumFrames
250.000000	250.000000	10	24	m	250.000000	436	498
Frame#	Time	L.Toe.Tip			R.Toe.Tip			L.Ankle.Lat			R.Ankle.Lat			L.Ankle.Med			R.Ankle.Med			L.Heel			R.Heel			L.Knee.Lat			R.Knee.Lat			L.Knee.Med			R.Knee.Med			L.Thigh.Upper			R.Thigh.Upper			L.ASIS			R.ASIS			V.Sacral			L.Acromium			R.Acromium			C7			L.Elbow			R.Elbow			L.Wrist.Lat			R.Wrist.Lat
		X1	Y1	Z1	X2	Y2	Z2	X3	Y3	Z3	X4	Y4	Z4	X5	Y5	Z5	X6	Y6	Z6	X7	Y7	Z7	X8	Y8	Z8	X9	Y9	Z9	X10	Y10	Z10	X11	Y11	Z11	X12	Y12	Z12	X13	Y13	Z13	X14	Y14	Z14	X15	Y15	Z15	X16	Y16	Z16	X17	Y17	Z17	X18	Y18	Z18	X19	Y19	Z19	X20	Y20	Z20	X21	Y21	Z21	X22	Y22	Z22	X23	Y23	Z23	X24	Y24	Z24

436	1.74	1.7304038	0.063740747	0.01988364	1.039458	0.041206402	0.12250511	1.571625	0.075614237	-0.01276042	0.92366826	0.11316987	0.17034562	1.5990394	0.098839633	0.079184055	0.94361906	0.1466078	0.078820585	1.5141237	0.03066562	0.039455158	0.8456789	0.12656908	0.11826546	1.4751955	0.47945195	-0.058779009	1.2009221	0.48110014	0.22869197	1.4818792	0.47611907	0.068331283	1.185816	0.47354571	0.10194191	1.31317	0.86557474	-0.1003932	1.2697664	0.87620876	0.27140058	1.3823159	0.95718269	-0.035520144	1.381127	0.95796706	0.20701108	1.2089616	1.0049279	0.073973981	1.3240866	1.4067327	-0.092635624	1.3229462	1.4233572	0.24076849	1.2547478	1.4617058	0.075485568	1.1603028	1.0811035	-0.13978626	1.2291832	1.0555032	0.33397061	1.2277194	0.84006686	-0.2158074	1.4788957	0.93967874	0.27698738
437	1.744	1.7325243	0.059342627	0.021019618	1.0400092	0.041338187	0.12312075	1.5744675	0.075250269	-0.013235774	0.92290329	0.11541365	0.17045234	1.6017418	0.098143797	0.07875975	0.94649832	0.14879313	0.079958164	1.5155239	0.031683838	0.038615399	0.84844095	0.13062927	0.11935218	1.4817716	0.48029731	-0.059404022	1.2086345	0.48001021	0.229127	1.4877907	0.47717269	0.067762158	1.1932743	0.4721387	0.10205196	1.3183271	0.86610363	-0.10097162	1.2771186	0.87465199	0.27095427	1.3878167	0.95776376	-0.036195643	1.3871767	0.95716359	0.20644644	1.2141293	1.0044588	0.074340932	1.3294483	1.4061736	-0.093151153	1.3283645	1.4227884	0.2404416	1.2597938	1.4614017	0.074667608	1.1666358	1.0799731	-0.14017202	1.234106	1.0550071	0.3332879	1.234461	0.83899331	-0.21583151	1.4829544	0.93708392	0.27730095
438	1.748	1.7344353	0.054916306	0.022065301	1.0406396	0.041523928	0.12366395	1.5771149	0.074834296	-0.013726706	0.9232772	0.11795795	0.17077811	1.6042072	0.097387843	0.078348044	0.94966467	0.15106283	0.081079579	1.5168593	0.032519935	0.037807604	0.85149657	0.13487165	0.12031296	1.4883486	0.4811555	-0.059909738	1.2167712	0.47894052	0.22952692	1.4938185	0.47839889	0.067105701	1.2012708	0.47073764	0.10245582	1.3235543	0.86671178	-0.10149321	1.2846788	0.87303648	0.27042075	1.3933227	0.95842435	-0.036829925	1.3931884	0.95642243	0.20586564	1.2195727	1.0039595	0.074824667	1.3347922	1.4057048	-0.093643883	1.333803	1.4223259	0.24007709	1.2648232	1.461044	0.073915138	1.1730265	1.0789208	-0.14055625	1.2390114	1.054586	0.33258778	1.2412917	0.83799339	-0.21581555	1.4870096	0.93443954	0.2776224
439	1.752	1.7361933	0.050684296	0.022942303	1.0413609	0.041796428	0.1239118	1.5795591	0.074341275	-0.014183473	0.92638717	0.12097458	0.17187199	1.606396	0.096549394	0.078031818	0.95315893	0.15337041	0.082202356	1.5180972	0.033197842	0.037007288	0.85487227	0.13928147	0.12116248	1.494988	0.4820174	-0.060265499	1.2251492	0.47784476	0.2298938	1.5000471	0.47971298	0.066369453	1.2098057	0.46926891	0.10314646	1.3288954	0.86736756	-0.10196126	1.2920822	0.87149036	0.26987893	1.3988492	0.95913321	-0.037432533	1.3991726	0.95573788	0.2052633	1.2252722	1.0034273	0.075357805	1.340117	1.4053163	-0.094107949	1.3392407	1.4219613	0.23966336	1.2699756	1.4606223	0.073362525	1.1794688	1.0779472	-0.14092343	1.2437946	1.0542172	0.33179799	1.2482159	0.8370748	-0.21576127	1.4910298	0.93174483	0.27796169
440	1.756	1.7378706	0.047062578	0.023606712	1.0421576	0.042127547	0.12384383	1.5818517	0.073783096	-0.014515999	0.93158345	0.12434365	0.17358102	1.6082898	0.095664199	0.077911017	0.95700944	0.15567871	0.083342794	1.5192236	0.033757301	0.036217624	0.8585764	0.14383842	0.12193398	1.5017637	0.48287854	-0.060463386	1.2336201	0.47670673	0.23028756	1.5065095	0.48101661	0.065599898	1.2185184	0.46771945	0.10387957	1.3343913	0.86804392	-0.10238604	1.2988049	0.870134	0.26948031	1.4044075	0.9598733	-0.038015426	1.4051379	0.95510659	0.20464148	1.2310931	1.002851	0.075836428	1.3454212	1.4049946	-0.094536961	1.3446778	1.4216828	0.23920404	1.2752102	1.4601903	0.072963381	1.1859389	1.0770417	-0.14127341	1.2484311	1.0538892	0.33088138	1.2552435	0.83623767	-0.21567068	1.4949064	0.92898909	0.27834305
441	1.76	1.739494	0.044390726	0.02402568	1.0430056	0.042454814	0.12365052	1.5840402	0.073214598	-0.014621595	0.9364174	0.12777468	0.17510052	1.6098825	0.094798242	0.078065547	0.96120913	0.15799112	0.084510967	1.5202421	0.034237407	0.035532181	0.8626001	0.14853365	0.12265838	1.508671	0.48370522	-0.060537978	1.2422088	0.47553382	0.23075895	1.5131729	0.48221575	0.064871735	1.227029	0.46611378	0.10441493	1.3400655	0.86871744	-0.10279567	1.3045019	0.86899386	0.26932731	1.4099955	0.9606455	-0.038587171	1.4110936	0.95452198	0.20400759	1.2369319	1.0022247	0.076210966	1.3507061	1.4047359	-0.094927518	1.3501119	1.4214795	0.23871431	1.2803767	1.4598069	0.07256137	1.1923854	1.0761781	-0.14165387	1.253045	1.0536425	0.32988852	1.2623842	0.83547708	-0.21554629	1.4985506	0.92616976	0.27878396
442	1.764	1.7409759	0.042697641	0.02422599	1.0438733	0.042744419	0.12352313	1.5860782	0.072713993	-0.014443536	0.93916582	0.13108715	0.1758354	1.6112072	0.094024707	0.078498351	0.96570685	0.16035574	0.085716548	1.5211491	0.034650753	0.03511021	0.86692079	0.15338068	0.12335753	1.5156485	0.48443647	-0.060572086	1.2510028	0.47436995	0.23132772	1.5199494	0.48323829	0.06425377	1.2354198	0.46444151	0.10479305	1.3459149	0.86936937	-0.10323321	1.3094265	0.86796908	0.26934014	1.4155964	0.96146033	-0.039161397	1.4170428	0.95397425	0.20336668	1.2427365	1.0015869	0.076482133	1.3559772	1.4045475	-0.095283794	1.3555221	1.4213438	0.2382113	1.2854203	1.4594767	0.072089637	1.1987425	1.0753278	-0.14214631	1.2578062	1.0535476	0.32891285	1.2696379	0.83478779	-0.21539324	1.5019994	0.92330957	0.27927088
443	1.768	1.7421728	0.041725923	0.024382657	1.0447144	0.043015809	0.12351605	1.5877938	0.072353547	-0.014022522	0.94053722	0.13435822	0.17603985	1.6123012	0.093390244	0.079118361	0.97043644	0.16282866	0.086969043	1.5219126	0.034975198	0.035040329	0.87151429	0.15841615	0.12405119	1.5226414	0.48502223	-0.060642453	1.2600366	0.47328157	0.23199138	1.5267231	0.4840567	0.063780756	1.2441501	0.46263316	0.10528904	1.351907	0.86999126	-0.10374041	1.3142972	0.86693649	0.26929647	1.42119	0.96231888	-0.039753687	1.4229746	0.95345271	0.20271749	1.2484767	1.0010093	0.076641323	1.3612406	1.404432	-0.095614685	1.3608845	1.4212732	0.23770948	1.2904163	1.4591657	0.071606904	1.2049911	1.0744851	-0.14276848	1.2627899	1.0536501	0.32800712	1.276994	0.83416688	-0.21521578	1.5053654	0.92044094	0.27977373
444	1.772	1.7430226	0.041133927	0.024735395	1.0455	0.0433212	0.12359818	1.5889886	0.072168511	-0.013490324	0.94240334	0.13778385	0.17637293	1.6131417	0.092886073	0.079788023	0.97535639	0.16543697	0.088270177	1.5224932	0.035178307	0.035224025	0.87637033	0.16368347	0.12476936	1.5296148	0.48546083	-0.060765464	1.2692845	0.47230215	0.23273119	1.5333888	0.48469889	0.063448542	1.2535697	0.46062106	0.10615548	1.3579832	0.87058637	-0.10434148	1.3196641	0.86585819	0.26902601	1.4267623	0.96320232	-0.040366932	1.4288667	0.95294595	0.20205614	1.2541385	1.0005439	0.076670495	1.3664957	1.4043743	-0.095930927	1.3661913	1.4212686	0.23722281	1.2954345	1.4588603	0.071169878	1.2112022	1.0736758	-0.14340039	1.2679655	1.0539502	0.3271661	1.2844419	0.83361218	-0.21501315	1.5087116	0.91758044	0.28027933
445	1.776	1.7435933	0.040677714	0.025348665	1.0462696	0.043725836	0.12374865	1.5896073	0.072135898	-0.012999035	0.94564546	0.14146632	0.17713461	1.6136644	0.092465358	0.080396473	0.98045523	0.16819129	0.089606554	1.5228934	0.035259111	0.035432974	0.88149715	0.16919435	0.12554899	1.5365399	0.48580022	-0.060905057	1.2786803	0.47139493	0.23351786	1.5398864	0.48523033	0.063221643	1.2636039	0.45841646	0.10741517	1.3640708	0.8711636	-0.10503145	1.3255982	0.86474599	0.26850745	1.4323057	0.9640811	-0.040991348	1.4346922	0.95244562	0.20137935	1.2597216	1.0001944	0.07656468	1.3717348	1.4043507	-0.096243334	1.3714477	1.4213281	0.2367643	1.3004866	1.4585899	0.070772546	1.2174722	1.0729267	-0.14388771	1.2732511	1.0544087	0.32635778	1.2919778	0.83311903	-0.21478245	1.5120279	0.91472938	0.28079447
